<svg width="70" height="39" viewBox="0 0 70 39" fill="none" xmlns="http://www.w3.org/2000/svg">
    <path d="M21.6588 29.3243H25.257L21.9891 38.2408H18.4257L21.6588 29.3243Z" fill="#7030A0"></path>
    <path d="M22.1629 38.5H18.0432L21.4676 29.0478H25.6221L22.1629 38.5ZM18.7907 37.9816H21.7979L24.8746 29.5835H21.8326L18.7907 37.9816Z"
          fill="#7030A0"></path>
    <path d="M48.5498 27.3371C49.1061 27.3371 49.4363 27.1643 49.6623 26.7668L50.6879 24.9178H40.519C39.6847 24.9178 35.9126 24.9178 34.8523 28.322H36.7991C37.1468 27.9073 37.8595 27.3543 39.1979 27.3371H41.2317C41.2317 27.3371 39.111 33.2123 38.2245 35.6315C38.2071 35.7006 38.155 35.8216 38.0854 35.9771C37.9638 36.3227 37.5987 36.5646 36.973 36.5646H30.0199L28.3512 32.9876C28.3512 32.9876 33.2878 31.3633 33.6529 28.4948C33.7224 27.9419 33.6703 27.1297 32.9923 26.3175C32.9923 26.3175 31.8972 24.866 27.934 24.9178H15.9747C15.9747 24.9178 7.99605 24.6241 11.1771 31.3633C11.1771 31.3633 12.0115 32.763 11.9245 33.9035C11.855 34.8884 10.9859 35.7524 8.96948 35.787H2.5379C1.96427 35.787 1.65138 35.9598 1.42541 36.3745L0.46936 38.1025H9.38667C9.38667 38.1025 12.446 38.1025 13.9235 37.0139C14.9144 36.2709 15.9399 34.7848 15.3837 32.7284C15.3837 32.7284 15.2272 32.0891 14.671 31.0004C13.8192 29.3415 13.3847 27.2852 16.4962 27.2852H27.708C27.708 27.2852 29.3072 27.2334 29.5679 28.6676C29.5679 28.6676 29.9504 30.3092 27.4994 31.5188C27.4994 31.5188 25.2397 32.5211 24.5096 32.6075L26.7346 37.2213C26.7346 37.2213 27.0996 38.1198 28.3512 38.1198H38.294C38.294 38.1198 41.0057 38.3963 41.9792 35.2859L44.8647 27.3543H48.5846L48.5498 27.3371Z"
          fill="#7030A0"></path>
    <path d="M38.4157 38.379C38.3114 38.379 38.2593 38.379 38.2593 38.379H28.3511C26.9258 38.379 26.5086 37.3595 26.4912 37.3249L24.1098 32.4001L24.4748 32.3655C25.0484 32.2964 26.7693 31.5707 27.3951 31.2942C29.6027 30.2055 29.3419 28.8059 29.3246 28.7367C29.116 27.5444 27.7775 27.5617 27.7254 27.5617H16.5135C15.4706 27.5617 14.7926 27.7863 14.4971 28.2702C14.1669 28.8059 14.3059 29.7217 14.9143 30.8967C15.488 32.0027 15.6444 32.6593 15.6618 32.6766C16.3745 35.2859 14.6536 36.8238 14.0973 37.2385C12.5851 38.3617 9.59523 38.379 9.40402 38.379H0L1.18202 36.2536C1.46014 35.7524 1.87733 35.5278 2.53787 35.5278H8.96946C10.6034 35.4932 11.5942 34.9057 11.6638 33.8862C11.7333 32.8494 10.9511 31.5015 10.9511 31.5015C9.99503 29.4798 9.90812 27.8727 10.7077 26.6977C12.1331 24.555 15.8356 24.6759 15.9921 24.6759H27.9513C27.9513 24.6759 28.073 24.6759 28.1252 24.6759C32.0363 24.6759 33.1661 26.1274 33.2183 26.1966C33.7919 26.8878 34.0353 27.6827 33.931 28.5467C33.6007 31.1732 29.8113 32.7457 28.7335 33.1432L30.2111 36.3054H36.9903C37.3206 36.3054 37.7378 36.2363 37.8595 35.8907L37.9985 35.5451C38.746 33.4888 40.4147 28.9095 40.884 27.5963H39.2327C38.0159 27.5963 37.3727 28.0974 37.0425 28.4948L36.9729 28.5812H34.5394L34.6437 28.2356C35.3563 25.9201 37.4596 24.6414 40.5538 24.6414H51.1572L49.9056 26.8705C49.6275 27.3543 49.2103 27.579 48.5672 27.579H45.0211L42.2051 35.3377C41.336 38.1544 39.0415 38.3617 38.4157 38.3617V38.379ZM24.8746 32.7976L26.9605 37.1176C26.9605 37.1176 27.2908 37.8606 28.3511 37.8606H38.294C38.4157 37.8606 40.8319 38.068 41.7184 35.1995L44.6561 27.0778H48.5672C49.0887 27.0778 49.2972 26.905 49.4537 26.6458L50.2707 25.1943H40.5538C37.8247 25.1943 35.9995 26.1966 35.2694 28.0801H36.7296C37.1468 27.6135 37.9116 27.1124 39.2327 27.0951H41.6315L41.5098 27.4407C41.5098 27.4407 39.3891 33.3332 38.5026 35.7352L38.3635 36.098C38.2592 36.3745 37.9464 36.8584 37.0077 36.8584H29.8808L28.0209 32.8667L28.299 32.7803C28.299 32.7803 33.0792 31.1732 33.4095 28.5121C33.4964 27.7863 33.3052 27.1124 32.8011 26.5422C32.7837 26.5249 31.7234 25.2289 28.1078 25.2289C28.0556 25.2289 28.0035 25.2289 27.9339 25.2289H15.9573C15.9573 25.2289 12.3765 25.1252 11.1249 27.0087C10.447 28.0283 10.5339 29.4625 11.403 31.2942C11.4204 31.3287 12.2722 32.763 12.1853 33.9726C12.0983 35.2686 10.8815 36.0635 8.96946 36.098H2.53787C1.99901 36.098 1.8078 36.2708 1.65135 36.5473L0.903899 37.8952H9.38664C9.38664 37.8952 12.3765 37.8952 13.7671 36.8584C14.2538 36.4955 15.7661 35.1476 15.1403 32.8494C15.1403 32.8494 14.9839 32.21 14.445 31.1732C13.7323 29.8081 13.6106 28.7367 14.0452 28.0283C14.4276 27.3889 15.262 27.0778 16.4962 27.0778H27.708C28.299 27.0778 29.5853 27.3543 29.8287 28.6676C29.8287 28.7367 30.2285 30.5166 27.6037 31.7953C27.5168 31.8299 25.8133 32.5902 24.8746 32.8321V32.7976Z"
          fill="#7030A0"></path>
    <path d="M62.2299 36.0116C62.2299 36.0116 62.1604 36.0116 62.143 36.0116C61.187 36.0116 60.4047 35.2167 60.4221 34.2663C60.4221 33.3159 61.2043 32.5556 62.1604 32.5556C62.1778 32.5556 62.2125 32.5556 62.2299 32.5556C64.5071 32.5556 65.8108 30.8103 66.2801 29.186C66.9754 26.7668 66.2453 23.4317 63.0121 21.4791C59.5356 19.1635 57.0325 16.3123 54.5989 13.5475C50.7921 9.21022 47.4894 5.46044 41.4403 4.57916C32.6968 3.4214 21.1025 3.43868 3.54604 3.47324H2.22496C1.26891 3.47324 0.486694 2.69563 0.486694 1.74523C0.486694 0.794824 1.25153 -5.90817e-05 2.22496 -5.90817e-05H3.54604C21.2416 -0.0173392 32.9227 -0.0518993 41.927 1.14043C49.2625 2.21179 53.3126 6.80829 57.2237 11.2665C59.5008 13.8586 61.8649 16.537 64.8895 18.5587C69.6176 21.4272 70.6953 26.4557 69.6176 30.1364C68.592 33.7134 65.6891 36.0116 62.2125 36.0116H62.2299Z"
          fill="#7030A0"></path>
    <path d="M58.6143 20.8743C42.8656 20.8743 34.2265 18.1095 32.9054 12.6317C32.7837 12.1133 32.9054 11.5777 33.2357 11.1629C33.5659 10.7482 34.1395 10.5063 34.6089 10.5063L55.3116 10.6964C56.2677 10.6964 57.0499 11.4913 57.0325 12.4417C57.0325 13.3921 56.2503 14.1524 55.2943 14.1524L38.0333 13.9969C41.5793 16.3988 50.2011 17.643 61.9866 17.3838C62.8731 17.3146 63.7422 18.1095 63.7596 19.0772C63.777 20.0276 63.0295 20.8225 62.0561 20.8398C60.8741 20.8743 59.7268 20.8743 58.6143 20.8743V20.8743Z"
          fill="#7030A0"></path>
    <path d="M10.5339 13.4785H1.98161C1.02557 13.4785 0.243347 12.7009 0.243347 11.7505C0.243347 10.8001 1.02557 10.0225 1.98161 10.0225H10.5339C11.4899 10.0225 12.2722 10.8001 12.2722 11.7505C12.2722 12.7009 11.4899 13.4785 10.5339 13.4785Z"
          fill="#7030A0"></path>
    <path d="M20.3551 19.3537H1.98161C1.02557 19.3537 0.243347 18.5761 0.243347 17.6257C0.243347 16.6752 1.02557 15.8976 1.98161 15.8976H20.3551C21.3111 15.8976 22.0934 16.6752 22.0934 17.6257C22.0934 18.5761 21.3111 19.3537 20.3551 19.3537Z"
          fill="#7030A0"></path>
</svg>
